<!--?xml version="1.0" encoding="utf-8"?-->
<!-- Generator: Adobe Illustrator 18.1.1, SVG Export Plug-In . SVG Version: 6.00 Build 0)  -->

<svg version="1.1" id="_x31_0" xmlns="http://www.w3.org/2000/svg" xmlns:xlink="http://www.w3.org/1999/xlink" x="0px" y="0px" viewBox="0 0 512 512" style="width: 16px; height: 16px; opacity: 1;" xml:space="preserve">
<style type="text/css">
	.st0{fill:#374149;}
</style>
<g>
	<path class="st0" d="M246.063,394.906c-7.301-0.543-14.652-1.726-21.952-3.504c-37.19-8.992-68.282-32.658-87.122-64.685
		c-3.254-5.55-6.175-11.331-8.648-17.366l25.581-1.59l18.246-1.023l-0.121-0.106l0.226-0.012l-91.473-80.742L33.78,279.106
		L0,317.175l0.164-0.011l-0.152,0.167l46.724-2.906c21.167,76.25,81.688,134.99,158.731,153.68
		c17.116,4.145,34.28,6.168,51.248,6.168c1.07,0,2.136-0.023,3.206-0.082c0.153,0.008,0.336,0,0.485,0.012l-0.004-0.023
		c0.054-0.004,0.109,0,0.164-0.004L246.063,394.906z" style="fill: rgb(0, 0, 0);"></path>
	<path class="st0" d="M293.565,390.367c-11.285,3.098-22.999,4.801-34.909,4.953c-0.168,0-0.332,0-0.496,0v0.024
		c-0.054,0-0.106,0.003-0.16,0.003l14.354,78.337c17.734-1.262,35.085-4.801,51.736-10.266c0.902-0.289,1.824-0.519,2.722-0.816
		l-0.007-0.02c0.05-0.019,0.106-0.031,0.156-0.05L293.565,390.367z" style="fill: rgb(0, 0, 0);"></path>
	<path class="st0" d="M338.207,369.106c-8.843,6.316-18.41,11.613-28.452,15.73c-0.106,0.043-0.207,0.094-0.309,0.133v0.004
		c-0.05,0.02-0.098,0.047-0.144,0.066l33.096,71.622c16.358-6.995,31.822-15.991,46.068-26.71c0.578-0.43,1.188-0.816,1.758-1.25
		l-0.007-0.012c0.042-0.031,0.086-0.062,0.129-0.094L338.207,369.106z" style="fill: rgb(0, 0, 0);"></path>
	<path class="st0" d="M368.643,339.311c-4.293,5.773-9.027,11.148-14.109,16.081l52.041,59.392
		c9.906-9.254,18.894-19.593,26.967-30.698c0.465-0.621,1.004-1.195,1.461-1.82l-0.015-0.012c0.031-0.043,0.066-0.082,0.098-0.125
		L368.643,339.311z" style="fill: rgb(0, 0, 0);"></path>
	<path class="st0" d="M384.034,313.12c-0.543,1.282-1.137,2.562-1.778,3.797l66.692,42.966c3.422-6.285,6.554-12.85,9.355-19.585
		c0.129-0.293,0.282-0.594,0.41-0.882l-0.016-0.008c0.023-0.047,0.047-0.098,0.066-0.145L384.034,313.12z" style="fill: rgb(0, 0, 0);"></path>
	<path class="st0" d="M265.941,117.098c7.301,0.539,14.648,1.722,21.948,3.5c37.162,8.984,68.235,32.623,87.078,64.61
		c3.27,5.574,6.206,11.378,8.691,17.441l-25.651,1.594l-18.171,1.019l0.117,0.106l-0.226,0.015l91.477,80.739l47.279-53.522
		L512,194.829l-0.16,0.007l0.148-0.167l-46.72,2.906c-21.171-76.25-81.692-134.99-158.731-153.68
		c-17.117-4.145-34.284-6.168-51.252-6.168c-1.07,0-2.14,0.023-3.214,0.082c-0.148-0.008-0.328,0-0.473-0.012l0.004,0.023
		c-0.054,0.004-0.11,0-0.164,0.004L265.941,117.098z" style="fill: rgb(0, 0, 0);"></path>
	<path class="st0" d="M218.435,121.633c11.289-3.098,23.003-4.801,34.913-4.953c0.164,0,0.332,0,0.496,0l-0.004-0.02
		c0.054-0.004,0.11-0.007,0.164-0.007L239.649,38.32c-17.757,1.262-35.131,4.805-51.802,10.281c-0.879,0.282-1.782,0.508-2.66,0.797
		l0.007,0.023c-0.05,0.016-0.102,0.028-0.152,0.047L218.435,121.633z" style="fill: rgb(0, 0, 0);"></path>
	<path class="st0" d="M173.797,142.894c8.851-6.324,18.429-11.629,28.487-15.75c0.09-0.035,0.179-0.078,0.273-0.117l0,0
		c0.047-0.024,0.094-0.047,0.145-0.066l-33.1-71.622c-16.398,7.011-31.893,16.03-46.166,26.784c-0.543,0.402-1.122,0.769-1.66,1.175
		l0.007,0.012c-0.038,0.031-0.086,0.062-0.129,0.094L173.797,142.894z" style="fill: rgb(0, 0, 0);"></path>
	<path class="st0" d="M143.361,172.689c4.289-5.773,9.026-11.148,14.109-16.081L106.886,98.88l-1.351-1.547l-0.004,0.004
		l-0.106-0.121c-9.926,9.273-18.933,19.632-27.022,30.764c-0.445,0.602-0.961,1.152-1.402,1.758l0.012,0.008
		c-0.027,0.043-0.066,0.082-0.098,0.125L143.361,172.689z" style="fill: rgb(0, 0, 0);"></path>
	<path class="st0" d="M127.97,198.884c0.539-1.286,1.133-2.566,1.774-3.801l-61.93-39.897l-4.621-2.992l-0.004,0.012l-0.137-0.086
		c-3.426,6.288-6.558,12.858-9.363,19.6c-0.129,0.286-0.274,0.578-0.398,0.867l0.012,0.004c-0.02,0.051-0.043,0.098-0.066,0.145
		L127.97,198.884z" style="fill: rgb(0, 0, 0);"></path>
</g>
</svg>
